<?xml version="1.0" standalone="no"?>
<!DOCTYPE svg PUBLIC "-//W3C//DTD SVG 20010904//EN"
 "http://www.w3.org/TR/2001/REC-SVG-20010904/DTD/svg10.dtd">
<svg version="1.0" xmlns="http://www.w3.org/2000/svg"
 width="350.000000pt" height="350.000000pt" viewBox="0 0 350.000000 350.000000"
 preserveAspectRatio="xMidYMid meet">
<metadata>
Created by potrace 1.11, written by Peter Selinger 2001-2013
</metadata>
<g transform="translate(0.000000,350.000000) scale(0.100000,-0.100000)"
fill="#000000" stroke="none">
<path d="M2990 3286 c-124 -35 -427 -118 -675 -185 -832 -226 -1004 -275
-1057 -302 -98 -50 -166 -124 -194 -213 -14 -44 -17 -135 -20 -696 -2 -355 -5
-662 -8 -682 -8 -56 -32 -105 -60 -124 -25 -16 -93 -21 -141 -10 -253 56 -547
-6 -694 -145 -144 -138 -182 -397 -80 -546 110 -160 275 -241 489 -240 193 0
353 54 505 170 161 123 287 335 310 525 4 26 9 55 12 65 2 10 6 123 8 250 5
270 12 409 26 481 6 28 12 61 15 74 7 37 36 105 56 134 23 34 23 33 -12 69
-45 48 -80 126 -80 179 0 26 3 49 6 52 3 3 33 -8 67 -25 53 -27 73 -31 156
-33 103 -3 155 5 400 62 184 43 178 42 306 50 153 10 260 -23 343 -105 43 -43
96 -142 107 -201 6 -34 10 -37 87 -63 194 -67 296 -186 289 -336 -1 -23 -2
-24 -21 -6 -11 10 -20 15 -20 12 0 -4 -9 1 -20 11 -12 9 -24 16 -28 15 -4 -1
-13 3 -19 9 -7 6 -13 7 -13 2 0 -5 -4 -3 -9 4 -4 7 -18 14 -29 15 -12 1 -22 6
-22 11 0 5 -7 1 -15 -10 -11 -14 -14 -15 -9 -2 6 17 -27 35 -46 23 -5 -3 -10
0 -10 7 0 9 -3 9 -10 -2 -6 -9 -10 -10 -10 -3 0 6 -8 12 -17 12 -10 0 -55 2
-101 4 -72 4 -84 2 -92 -14 -14 -26 -12 -33 5 -19 12 10 18 10 31 -1 15 -12
16 -11 10 11 -5 17 -4 21 2 11 5 -7 12 -9 14 -5 3 5 3 3 1 -4 -1 -8 2 -10 10
-7 6 4 3 -1 -8 -11 -16 -13 -17 -16 -3 -11 10 3 20 2 23 -3 4 -6 11 -10 18
-10 6 0 2 7 -9 15 -12 10 -14 13 -3 10 10 -4 20 3 27 17 8 18 11 19 11 6 1
-10 6 -18 12 -18 6 0 8 7 5 16 -5 13 -3 14 6 7 7 -6 21 -9 31 -8 10 2 14 -1
11 -7 -5 -7 -2 -8 7 -4 8 4 3 -2 -10 -13 -13 -12 -19 -21 -14 -21 5 0 15 6 22
13 11 9 12 9 7 0 -5 -9 -2 -11 9 -6 12 4 13 8 5 13 -9 5 -9 9 -1 14 6 4 11 2
11 -5 0 -10 3 -10 12 -1 7 7 17 12 23 12 5 0 3 -5 -5 -11 -13 -9 -12 -10 3 -5
15 5 16 3 6 -15 -8 -16 -8 -20 1 -14 7 4 28 9 48 11 23 2 32 0 24 -5 -8 -4
-13 -11 -13 -15 2 -17 0 -17 -16 -5 -9 8 -19 12 -22 11 -36 -22 -40 -22 -36
-2 4 23 -10 36 -21 19 -4 -8 -3 -9 4 -5 8 4 10 2 6 -7 -6 -18 -42 -29 -50 -16
-8 14 -26 11 -18 -3 4 -7 4 -10 -1 -6 -4 4 -15 2 -23 -5 -13 -9 -14 -9 -8 1 4
6 2 12 -3 12 -6 0 -11 -6 -11 -12 0 -7 -5 -5 -11 5 -5 9 -15 17 -21 17 -6 0
-5 -7 3 -17 10 -11 10 -14 2 -9 -8 4 -13 2 -13 -4 0 -7 -8 -9 -21 -5 -14 5
-19 3 -15 -3 4 -7 -3 -9 -20 -6 -18 3 -23 1 -18 -7 5 -8 3 -9 -5 -5 -7 5 -21
0 -32 -10 -10 -9 -19 -14 -19 -9 0 4 -7 2 -15 -5 -11 -9 -15 -9 -15 -1 0 7 -5
9 -10 6 -6 -4 -7 -11 -4 -17 4 -7 2 -8 -4 -4 -7 4 -12 1 -12 -6 0 -9 -3 -9
-10 2 -5 8 -10 10 -10 4 0 -6 -25 -30 -55 -52 -30 -23 -55 -36 -55 -30 0 16
-13 1 -16 -18 -1 -9 -12 -23 -23 -31 -12 -8 -21 -22 -21 -31 0 -13 -2 -14 -9
-3 -10 16 -20 3 -16 -22 2 -9 -1 -15 -6 -11 -5 3 -9 -2 -9 -10 0 -9 -5 -16
-11 -16 -5 0 -7 -5 -3 -12 5 -7 3 -8 -6 -3 -9 5 -10 2 -6 -13 4 -11 2 -23 -4
-27 -6 -3 -8 -10 -5 -15 3 -4 -2 -13 -11 -20 -12 -11 -12 -15 -2 -21 7 -5 8
-9 2 -9 -5 0 -10 -18 -9 -39 1 -27 -3 -37 -11 -34 -8 3 -11 -3 -9 -14 2 -10 4
-20 4 -23 1 -3 6 2 11 10 7 11 8 6 5 -17 -2 -18 0 -35 5 -38 4 -3 7 -13 5 -23
-1 -9 3 -27 11 -39 9 -14 10 -24 4 -28 -15 -9 -12 -27 3 -19 6 4 4 -1 -5 -12
-9 -11 -15 -28 -13 -39 2 -11 4 -24 4 -29 1 -13 16 3 16 17 1 7 -4 15 -10 20
-6 4 -5 10 5 17 11 7 20 4 32 -13 10 -12 18 -26 18 -31 0 -5 15 -22 34 -38 24
-20 33 -35 29 -46 -6 -15 -5 -16 12 -2 11 9 16 10 11 3 -6 -11 6 -18 18 -10 3
1 15 -8 28 -21 14 -12 27 -20 30 -17 3 3 11 -1 17 -9 7 -8 20 -12 29 -9 13 4
14 3 4 -5 -11 -7 -10 -10 3 -16 23 -8 27 -8 21 3 -8 13 22 7 36 -7 9 -9 7 -11
-10 -7 -11 2 -25 -2 -30 -8 -8 -9 6 -12 56 -11 37 1 69 2 72 4 21 8 39 7 33
-3 -4 -6 0 -8 10 -4 8 3 55 7 104 8 261 6 483 124 581 307 62 116 60 80 58
1256 -1 1069 -1 1071 -22 1116 -25 54 -66 93 -113 109 -67 22 -139 12 -371
-53z m-228 -1705 c8 11 9 11 6 1 -4 -16 -22 -18 -24 -2 -2 7 -1 6 3 -1 4 -8 8
-7 15 2z m288 -61 c3 -1 8 -2 12 -2 3 1 12 -6 20 -16 12 -15 11 -16 -4 -3 -10
7 -18 10 -18 6 0 -4 -7 -2 -15 5 -11 9 -15 9 -15 1 0 -7 -4 -9 -10 -6 -25 15
-2 27 30 15z"/>
<path d="M2363 1954 c-16 -17 -16 -21 1 -27 9 -4 14 -1 12 6 -1 7 -1 9 1 5 3
-5 13 -3 23 2 16 9 18 7 15 -10 -2 -11 0 -18 5 -15 6 3 7 -1 4 -9 -4 -10 1
-18 10 -22 15 -6 15 -8 -1 -21 -10 -8 -12 -11 -3 -7 8 4 12 3 7 -1 -4 -5 -18
-10 -30 -12 -18 -3 -19 -1 -7 8 13 9 12 10 -3 5 -13 -4 -16 -2 -11 7 5 8 2 7
-9 -2 -19 -15 -19 -16 -21 26 -1 18 -8 38 -16 45 -8 7 -12 9 -8 4 4 -4 3 -19
-2 -32 -13 -32 37 -84 74 -77 41 8 75 59 57 88 -3 6 -6 15 -6 20 0 6 -6 10
-13 10 -7 0 -16 5 -20 10 -9 13 -35 18 -27 5 3 -5 2 -10 -4 -10 -5 0 -11 4
-13 9 -1 5 -9 3 -15 -5z m85 -23 c0 -3 1 -8 2 -11 9 -24 6 -38 -7 -33 -8 3
-12 11 -9 18 2 7 0 17 -5 22 -6 6 -4 10 5 10 8 0 15 -3 14 -6z m-101 -40 c0
-11 -5 -18 -9 -15 -4 3 -5 11 -1 19 7 21 12 19 10 -4z"/>
<path d="M2393 1903 c2 -29 15 -45 29 -37 4 3 1 15 -7 28 -8 12 -12 26 -8 29
3 4 2 7 -4 7 -6 0 -10 -12 -10 -27z"/>
<path d="M2365 1889 c-1 -15 3 -25 7 -23 5 3 6 10 3 15 -4 5 -1 9 4 9 15 0 14
17 -2 23 -8 3 -12 -5 -12 -24z"/>
<path d="M2604 1578 c-3 -4 -11 -5 -19 -1 -8 3 -15 1 -15 -4 0 -4 -14 -9 -31
-9 -17 -1 -35 -8 -40 -15 -5 -8 -9 -10 -9 -5 0 5 -7 3 -15 -4 -8 -6 -20 -8
-26 -4 -8 4 -9 3 -5 -4 7 -12 -5 -16 -33 -13 -7 2 -10 -2 -6 -8 3 -6 1 -12 -4
-12 -35 -4 -59 -19 -64 -40 -3 -10 -11 -19 -19 -19 -10 0 -10 2 2 10 8 5 12
11 9 14 -3 3 -19 -7 -36 -23 -18 -16 -35 -26 -40 -22 -4 3 -1 -3 7 -13 14 -18
13 -19 -3 -13 -11 4 -20 1 -23 -8 -4 -8 -11 -12 -18 -8 -6 4 -4 -1 3 -11 13
-16 13 -18 0 -16 -28 4 -39 0 -39 -16 0 -9 -5 -12 -12 -8 -6 4 -8 3 -5 -3 4
-6 -4 -22 -18 -37 -13 -14 -22 -26 -19 -26 3 0 -4 -13 -16 -30 -12 -16 -18
-34 -15 -40 3 -5 0 -10 -8 -10 -20 0 -44 85 -26 95 3 3 5 16 4 30 -2 14 1 25
7 25 6 0 8 7 5 15 -4 8 -2 17 4 20 5 4 7 11 4 16 -4 5 -1 9 4 9 6 0 11 5 11
12 0 6 -8 4 -20 -7 -10 -9 -18 -22 -17 -29 1 -6 -4 -10 -11 -8 -8 1 -11 -2 -7
-8 3 -5 0 -10 -7 -10 -9 0 -9 -3 2 -10 13 -8 12 -10 -2 -10 -16 0 -23 -11 -19
-32 0 -5 -3 -8 -9 -8 -5 0 -10 -6 -10 -14 0 -7 -6 -19 -14 -25 -9 -7 -13 -24
-11 -42 2 -16 0 -27 -5 -24 -4 3 -7 -3 -5 -12 1 -10 -3 -24 -9 -32 -8 -11 -8
-13 2 -7 6 4 12 2 12 -3 0 -8 7 -7 19 1 11 7 17 16 14 20 -2 5 -10 4 -17 -1
-9 -8 -13 -7 -13 4 0 8 3 12 7 10 4 -2 7 1 8 8 3 22 10 62 12 67 1 3 2 9 1 13
-1 5 3 6 9 2 6 -3 8 -10 5 -15 -3 -5 0 -12 6 -16 8 -5 10 -1 7 14 -4 14 -2 19
8 15 15 -5 14 -23 -1 -36 -6 -5 -4 -7 6 -4 21 7 20 -40 -1 -53 -8 -6 -10 -10
-4 -10 16 0 35 25 26 35 -4 5 0 4 8 -1 22 -13 41 -14 34 -2 -5 7 -2 8 7 3 11
-6 11 -5 2 5 -8 9 -6 21 10 49 20 35 44 61 57 61 11 0 8 -34 -4 -43 -7 -6 -6
-7 4 -4 8 2 14 11 14 20 -1 9 3 14 8 11 5 -3 7 -12 4 -20 -8 -21 2 -17 14 6 8
15 8 20 0 18 -7 -2 -18 8 -27 22 -14 23 -14 24 1 6 9 -11 16 -15 16 -10 0 6
-4 14 -10 20 -6 6 -6 15 0 24 5 8 10 10 10 4 0 -6 6 -11 14 -11 8 0 13 8 11
19 -2 10 1 18 6 18 6 0 7 5 3 12 -4 7 -3 8 4 4 6 -4 9 -12 6 -19 -3 -8 4 -13
17 -14 16 -2 18 1 9 12 -7 8 -8 20 -4 27 5 7 9 17 9 22 0 5 10 11 23 12 12 2
22 -1 22 -7 0 -5 -4 -8 -9 -5 -5 3 -14 -1 -21 -9 -15 -18 -7 -19 21 -4 11 6
18 16 16 23 -3 6 2 21 10 31 12 15 14 16 10 3 -6 -18 18 -33 28 -18 4 6 1 10
-4 10 -6 0 -11 5 -11 11 0 8 4 8 15 -1 8 -6 20 -8 26 -4 8 5 10 3 4 -7 -6 -10
-5 -11 4 -3 15 14 24 57 9 48 -7 -4 -8 -3 -4 4 11 18 29 14 22 -4 -3 -9 -2
-12 5 -9 6 4 8 13 6 19 -3 7 0 13 6 14 7 0 21 3 32 6 11 2 25 5 30 5 6 1 3 6
-5 12 -13 9 -12 10 3 5 12 -4 16 -2 11 6 -5 7 -3 8 5 3 9 -5 10 -10 2 -18 -17
-17 -13 -31 4 -17 9 7 13 20 10 29 -4 11 -3 13 5 5 19 -19 20 -53 2 -64 -9 -5
-12 -9 -7 -10 20 0 38 18 30 30 -6 9 -4 11 5 5 9 -6 11 -4 5 5 -6 9 -4 11 5 5
9 -5 11 -4 6 4 -4 6 -12 9 -17 6 -5 -4 -9 -2 -9 3 0 16 36 20 55 6 10 -8 14
-14 9 -14 -6 0 -15 5 -21 11 -9 9 -12 7 -10 -10 1 -15 6 -20 17 -15 8 3 25 8
38 10 22 4 22 4 5 -14 -10 -10 -19 -14 -21 -10 -2 4 -8 8 -13 8 -6 0 -7 -5 -3
-12 4 -6 3 -8 -4 -4 -6 3 -13 2 -17 -4 -4 -6 -11 -8 -16 -5 -5 4 -9 2 -9 -3 0
-12 -32 -12 -47 1 -18 14 -16 -3 3 -24 14 -16 14 -17 -3 -14 -10 1 -17 7 -16
13 2 6 -7 10 -18 9 -19 -1 -19 -2 -3 -14 16 -11 16 -13 1 -19 -9 -3 -14 -10
-11 -15 3 -5 2 -9 -3 -8 -20 3 -27 -2 -13 -11 11 -8 5 -9 -20 -5 -27 4 -32 3
-20 -6 13 -9 12 -10 -3 -5 -12 4 -16 2 -11 -5 3 -6 -6 -3 -22 6 l-29 17 25
-21 c23 -20 23 -21 3 -11 -18 8 -21 8 -17 -3 3 -8 -2 -20 -10 -27 -9 -7 -13
-16 -10 -21 3 -5 0 -10 -5 -10 -6 -1 -17 -2 -23 -3 -7 -1 -12 -8 -10 -15 1 -7
-2 -10 -7 -6 -6 3 -8 -3 -6 -15 2 -11 0 -18 -5 -15 -5 3 -7 -7 -4 -22 2 -16 1
-23 -3 -18 -10 13 -33 18 -33 7 0 -4 6 -14 13 -21 6 -8 7 -11 1 -8 -7 4 -10
-3 -8 -18 1 -15 -2 -23 -8 -19 -5 4 -5 -4 2 -16 8 -15 8 -20 1 -16 -19 12 -32
-3 -21 -24 8 -15 6 -17 -10 -13 -11 3 -20 10 -20 15 0 5 6 6 13 2 7 -5 6 0 -3
11 -8 10 -13 20 -12 22 2 3 0 8 -4 11 -4 4 -4 1 0 -5 5 -9 2 -11 -11 -7 -10 3
-14 2 -8 -3 12 -9 16 -63 5 -63 -4 0 -7 -7 -7 -15 0 -17 24 -28 32 -15 4 6 1
10 -5 10 -7 0 -10 5 -8 12 5 14 38 20 38 6 0 -6 -7 -7 -16 -4 -9 3 -12 2 -9
-5 4 -6 14 -8 24 -5 13 5 13 4 -2 -8 -10 -8 -14 -16 -10 -18 4 -3 2 -3 -5 -1
-8 1 -10 -2 -6 -9 5 -7 3 -8 -6 -3 -10 6 -11 4 -4 -6 5 -8 9 -21 9 -29 0 -8 6
-14 14 -12 12 3 12 0 1 -12 -10 -13 -10 -19 0 -31 7 -8 16 -13 19 -10 4 2 8
-2 8 -10 0 -10 -4 -12 -12 -5 -12 10 -25 4 -25 -12 0 -4 6 -7 13 -6 6 2 11 -3
9 -10 -1 -8 2 -11 9 -6 8 5 9 3 4 -6 -6 -9 -4 -11 5 -5 9 5 11 4 6 -4 -4 -6
-13 -8 -19 -5 -9 5 -9 4 0 -6 6 -7 19 -10 29 -6 15 6 15 8 1 24 -9 10 -15 28
-12 40 2 12 -1 24 -6 27 -5 4 -7 11 -4 16 4 5 1 9 -5 9 -6 0 -8 5 -5 10 3 6
-1 13 -10 16 -13 6 -14 8 -3 15 10 7 10 9 -2 9 -10 0 -8 4 6 15 15 10 21 24
19 47 -1 18 3 39 9 47 10 12 15 28 19 61 1 8 12 29 24 46 12 17 20 33 18 36
-3 3 13 19 36 37 22 18 38 36 35 39 -9 9 14 31 27 26 7 -2 27 9 44 25 18 16
34 27 37 24 2 -3 9 5 16 16 6 12 15 19 19 16 5 -2 14 1 20 8 6 8 21 13 33 12
13 -1 33 7 45 18 12 11 29 17 37 14 9 -4 18 -2 21 4 4 5 14 8 23 7 11 -2 16 4
16 17 0 11 -6 19 -13 17 -8 -2 -22 5 -32 14 -14 12 -22 14 -32 6 -7 -6 -18 -7
-26 -3 -9 6 -10 11 -2 15 6 4 11 11 11 16 0 10 -39 9 -46 -2z m31 -7 c-9 -8
-36 -10 -30 -2 2 4 11 8 20 8 8 0 13 -3 10 -6z m65 -36 c7 -9 18 -14 25 -11 6
2 12 -2 12 -10 0 -7 -4 -11 -9 -8 -5 3 -14 1 -21 -5 -7 -5 -19 -6 -26 -2 -10
6 -9 10 4 15 9 3 13 11 10 17 -4 6 -14 8 -22 5 -8 -3 -11 -1 -8 4 9 14 21 12
35 -5z m-276 -54 c9 -13 -25 -23 -39 -11 -6 5 -16 6 -20 2 -5 -4 -6 -2 -2 3 7
13 54 18 61 6z m216 -5 c-5 -5 -20 -11 -32 -13 -21 -3 -22 -3 -4 10 22 16 52
19 36 3z m-117 -51 c-3 -9 -8 -14 -10 -11 -3 3 -2 9 2 15 9 16 15 13 8 -4z
m-63 -50 c-7 -8 -17 -15 -23 -15 -6 0 -2 7 9 15 25 19 30 19 14 0z m-59 -28
c-6 -8 -8 -16 -5 -19 3 -3 -14 -21 -38 -39 -24 -19 -37 -27 -31 -18 7 9 11 19
8 22 -3 4 -2 5 1 2 9 -6 47 15 40 22 -3 4 1 15 11 25 19 21 31 25 14 5z m-347
-49 c-1 -13 -3 -25 -4 -28 -1 -3 -2 -8 -1 -12 0 -5 -3 -8 -9 -8 -5 0 -10 6
-10 13 0 8 -4 7 -10 -3 -6 -9 -10 -10 -10 -3 0 6 5 15 10 18 6 4 8 10 5 15 -4
7 13 23 31 30 0 0 0 -10 -2 -22z m200 -364 c3 -8 2 -12 -4 -9 -6 3 -10 10 -10
16 0 14 7 11 14 -7z"/>
<path d="M2033 1285 c0 -8 4 -12 9 -9 5 3 6 10 3 15 -9 13 -12 11 -12 -6z"/>
<path d="M2830 1562 c0 -5 -12 -9 -27 -8 -22 1 -28 -4 -28 -19 0 -14 7 -19 25
-19 14 0 25 5 25 12 0 7 6 17 14 21 9 6 10 11 2 15 -6 4 -11 3 -11 -2z m-13
-27 c0 -6 -8 -11 -17 -11 -9 0 -17 5 -17 11 0 6 8 11 17 11 9 0 17 -5 17 -11z"/>
<path d="M2550 1515 c-7 -9 -10 -18 -6 -22 3 -3 6 -1 6 6 0 7 4 10 8 7 5 -3 9
1 9 9 0 19 -2 19 -17 0z"/>
<path d="M2856 1518 c3 -4 11 -5 19 -1 21 7 19 12 -4 10 -11 0 -18 -5 -15 -9z"/>
<path d="M2483 1511 c-5 -3 -22 -23 -37 -43 -16 -21 -33 -35 -41 -32 -7 3 -18
-4 -25 -15 -6 -12 -16 -21 -23 -20 -9 0 -9 2 1 6 16 6 15 20 -2 26 -10 4 -13
1 -10 -7 3 -8 -8 -23 -25 -36 -20 -13 -31 -17 -31 -9 0 7 -3 10 -6 6 -3 -3 -2
-12 2 -19 18 -28 10 -51 -10 -31 -12 12 -35 12 -33 0 1 -7 -8 -11 -21 -11 -17
1 -20 -1 -11 -12 6 -7 7 -19 3 -25 -4 -7 -3 -9 3 -6 6 4 19 -1 29 -9 10 -9 13
-12 6 -9 -8 4 -19 -1 -27 -13 -13 -17 -24 -19 -69 -13 -6 0 -1 8 10 16 17 13
17 14 2 15 -15 0 -24 -13 -15 -23 1 -1 -8 -13 -20 -26 -16 -18 -20 -28 -12
-37 11 -14 -5 -29 -32 -29 -9 0 -23 -6 -33 -14 -20 -17 -28 -10 -32 25 -3 24
-2 24 10 9 9 -13 13 -14 13 -3 0 7 -12 22 -25 33 -14 10 -22 13 -18 7 4 -6 2
-20 -3 -31 -8 -14 -7 -22 4 -31 13 -11 12 -16 -10 -36 -15 -13 -23 -29 -19
-35 4 -8 9 -7 15 2 4 7 5 17 3 21 -3 4 0 8 6 8 7 0 9 -7 6 -16 -3 -8 -2 -12 3
-9 5 3 12 1 16 -5 10 -16 28 -12 21 6 -4 10 -2 13 6 8 7 -4 8 -3 4 4 -11 19
-29 14 -21 -5 5 -15 4 -16 -6 -5 -21 20 5 39 27 21 15 -12 17 -12 9 0 -6 10
-4 12 5 6 9 -6 11 -4 5 5 -6 9 -4 11 5 5 8 -5 11 -4 6 3 -3 6 -2 13 3 17 6 3
8 -4 6 -15 -3 -14 0 -20 8 -17 7 2 11 11 9 21 -2 9 2 16 8 16 6 0 8 -5 5 -10
-10 -16 18 -7 33 10 10 11 12 11 6 1 -5 -10 -3 -12 7 -7 8 4 5 0 -5 -8 -11 -9
-17 -17 -13 -17 4 -1 12 -2 19 -3 6 0 13 -8 15 -16 4 -13 3 -13 -6 0 -9 12
-11 10 -9 -10 2 -18 -2 -25 -14 -24 -10 1 -16 -3 -15 -10 1 -6 -5 -9 -13 -7
-8 2 -20 4 -26 5 -7 1 -19 8 -27 14 -11 9 -17 10 -22 2 -4 -6 -1 -9 6 -8 7 2
13 -9 14 -24 1 -16 -2 -25 -8 -21 -6 3 -7 1 -3 -6 6 -9 12 -9 24 1 15 11 15
11 5 -2 -8 -10 -9 -21 -3 -30 7 -11 10 -12 10 -2 0 7 4 11 9 7 5 -3 13 0 17 6
5 8 3 9 -6 4 -9 -6 -11 -4 -5 5 5 9 4 11 -3 6 -8 -5 -10 -1 -5 10 5 14 3 16
-12 11 -15 -6 -16 -5 -5 8 7 9 16 12 19 8 7 -11 27 -11 37 0 4 4 12 7 18 7 5
0 1 -7 -10 -15 -19 -15 -19 -15 1 -9 14 4 16 3 7 -4 -11 -7 -8 -11 10 -16 17
-4 20 -8 9 -15 -8 -5 -9 -11 -3 -15 6 -3 13 0 15 6 4 9 6 10 6 1 1 -6 -3 -14
-9 -18 -5 -3 -6 -13 -3 -21 5 -13 8 -13 15 -2 7 10 8 8 4 -5 -4 -12 -2 -16 6
-11 7 5 8 3 3 -5 -5 -9 -10 -10 -18 -2 -6 6 -16 11 -22 11 -5 -1 1 -10 14 -20
13 -11 19 -20 14 -20 -5 0 -9 -13 -9 -30 0 -16 3 -30 8 -30 4 0 8 5 8 11 0 5
5 7 10 4 6 -3 10 -11 10 -16 0 -6 -6 -7 -12 -3 -10 6 -10 5 -1 -8 7 -8 10 -17
7 -20 -3 -3 3 -5 13 -5 11 1 18 -5 19 -19 1 -12 -5 -21 -13 -21 -9 0 -10 4 -3
11 12 12 13 26 1 26 -5 0 -12 -10 -15 -22 l-7 -23 -11 22 c-11 22 -11 22 -27
2 -17 -21 -67 -36 -55 -17 4 7 2 8 -5 4 -6 -4 -11 -4 -10 1 4 21 -2 34 -12 27
-8 -5 -8 -9 1 -14 7 -4 8 -10 4 -13 -5 -3 -15 1 -22 9 -9 10 -9 14 -1 14 8 0
9 4 0 13 -6 8 -7 18 -3 22 4 5 0 5 -8 0 -8 -5 -12 -5 -8 0 11 11 -12 36 -25
28 -6 -3 -7 -1 -3 6 10 15 -13 43 -27 34 -6 -4 -7 -1 -2 7 4 7 2 16 -6 22 -10
7 -9 8 6 3 11 -3 16 -3 12 1 -4 4 1 16 10 27 13 15 14 19 3 13 -8 -4 -6 0 5
10 17 14 18 16 2 10 -13 -4 -16 -2 -11 7 4 7 3 9 -2 4 -5 -5 -9 -12 -9 -15 0
-4 -4 -13 -9 -21 -7 -10 -5 -12 5 -6 11 6 12 5 2 -6 -10 -10 -16 -10 -25 -1
-9 9 -9 12 1 12 7 0 9 5 6 10 -4 6 -12 7 -18 3 -7 -4 -6 0 2 10 9 12 10 17 2
17 -7 0 -9 5 -5 11 5 8 9 8 14 -1 5 -9 9 -9 14 -1 4 6 1 11 -6 11 -11 0 -10 2
0 9 11 7 10 9 -3 15 -9 3 -14 10 -10 15 3 5 1 12 -5 16 -5 3 -10 -1 -10 -9 0
-9 -6 -16 -12 -16 -10 0 -9 -3 1 -9 9 -6 10 -10 2 -16 -7 -4 -8 -11 -3 -18 5
-7 9 -23 10 -36 0 -13 5 -27 10 -30 5 -3 8 -14 7 -23 -2 -9 5 -24 15 -33 10
-9 16 -23 13 -31 -3 -9 0 -14 8 -12 7 2 13 -4 14 -12 1 -8 7 -14 14 -12 8 2
11 -3 8 -11 -6 -16 75 -101 86 -91 4 4 7 0 7 -9 0 -15 6 -19 26 -16 4 0 10 -3
13 -9 8 -12 101 -63 101 -56 0 4 7 1 15 -6 8 -7 15 -9 15 -4 0 5 4 3 9 -5 5
-7 23 -14 40 -15 17 0 31 -5 31 -10 0 -6 7 -1 15 10 13 16 14 16 9 2 -6 -19 2
-21 58 -21 16 1 26 -2 24 -6 -3 -4 4 -7 14 -7 10 0 16 4 14 8 -3 4 0 8 5 8 6
0 11 -5 11 -11 0 -5 5 -7 10 -4 10 6 -30 46 -47 46 -4 0 -16 8 -26 17 -10 9
-24 17 -32 19 -8 2 -23 5 -32 7 -10 3 -24 5 -30 5 -7 1 -13 6 -13 12 0 5 4 8
9 4 17 -10 21 12 6 25 -8 7 -15 10 -15 7 0 -4 -10 4 -23 16 -13 12 -22 24 -21
27 1 3 -4 16 -11 30 -13 24 -14 24 -12 3 1 -13 6 -23 11 -23 5 0 1 -6 -9 -14
-11 -8 -24 -12 -30 -10 -13 5 -14 53 -2 72 7 11 5 14 -13 15 -9 0 -40 37 -32
37 5 0 9 6 9 14 0 8 -8 13 -19 11 -22 -5 -23 8 -3 25 11 9 12 16 4 26 -6 7 -8
18 -5 23 4 5 1 13 -5 16 -5 4 -8 13 -5 21 3 7 1 16 -5 19 -5 4 -7 10 -4 15 3
4 -2 10 -10 13 -13 6 -14 35 0 57 3 5 1 18 -5 29 -8 16 -7 22 9 30 21 12 47
-8 33 -25 -4 -4 1 -2 11 5 9 8 15 16 12 19 -3 3 1 12 8 20 9 12 9 16 0 19 -7
3 -13 9 -13 14 0 6 4 8 9 5 5 -3 8 2 7 11 0 10 6 18 14 18 8 0 16 6 16 13 1 6
3 15 4 20 1 4 2 10 2 13 -1 4 8 15 18 24 11 10 20 14 20 9 0 -20 33 41 35 64
1 24 35 43 35 20 0 -6 6 -6 15 2 8 6 18 9 23 6 5 -3 19 5 31 18 22 23 22 25 4
35 -10 6 -13 11 -5 12 22 3 27 4 40 13 7 4 11 13 9 19 -4 12 -30 18 -44 8z
m30 -12 c4 8 5 8 3 0 -1 -7 -10 -13 -20 -15 -10 -1 -23 -7 -28 -12 -13 -13 0
-34 15 -25 7 3 3 -3 -7 -15 -13 -15 -23 -19 -31 -12 -6 5 -15 7 -19 3 -11 -11
-36 -12 -36 -1 0 6 6 8 14 5 8 -3 29 13 52 38 23 27 41 40 45 34 5 -8 8 -8 12
0z m-168 -108 c-3 -6 3 -14 12 -20 10 -6 12 -11 6 -11 -7 0 -13 -8 -13 -17 0
-15 -2 -16 -10 -3 -9 13 -11 12 -9 -5 0 -3 -12 -20 -26 -37 -14 -17 -24 -37
-21 -45 3 -8 2 -12 -2 -9 -10 6 -36 -16 -40 -33 -1 -7 2 -19 8 -26 8 -9 8 -15
0 -20 -6 -3 -7 -12 -3 -18 4 -7 0 -6 -10 2 -9 7 -15 17 -12 21 3 5 1 11 -5 15
-5 3 -10 0 -10 -8 0 -18 -27 -30 -36 -16 -4 7 -10 7 -17 0 -15 -15 -30 -14
-24 3 3 7 1 18 -4 23 -6 6 -2 16 11 28 16 14 22 15 35 5 12 -10 15 -10 16 1 0
11 2 11 6 1 3 -8 11 -4 24 12 12 15 26 23 34 19 23 -8 18 14 -7 31 -12 9 -17
16 -10 16 7 0 11 4 8 9 -3 5 1 14 9 21 14 11 19 7 16 -12 -2 -13 17 -9 26 5 4
6 8 20 8 29 0 9 9 24 20 32 23 18 28 19 20 7z m-265 -245 c0 -2 -8 -10 -17
-17 -16 -13 -17 -12 -4 4 13 16 21 21 21 13z m-96 -115 c3 -5 -2 -15 -12 -22
-15 -12 -16 -12 -5 2 7 9 10 19 6 22 -3 4 -4 7 0 7 3 0 8 -4 11 -9z m211 -17
c9 -15 12 -23 6 -20 -11 7 -35 46 -28 46 3 0 12 -12 22 -26z m19 -52 c3 -5 -1
-9 -9 -9 -8 0 -12 4 -9 9 3 4 7 8 9 8 2 0 6 -4 9 -8z m-159 -131 c3 -5 2 -12
-3 -15 -5 -3 -9 1 -9 9 0 17 3 19 12 6z m217 -25 c7 4 8 2 4 -4 -5 -9 -12 -9
-26 0 -10 7 -16 16 -13 21 3 5 10 2 15 -7 5 -9 14 -13 20 -10z m-77 -46 c-6
-10 3 -13 38 -13 9 0 17 -4 17 -9 0 -6 -7 -7 -16 -4 -9 3 -12 2 -9 -5 4 -5 15
-7 26 -4 10 4 19 2 19 -3 0 -11 25 -10 36 1 4 4 12 7 18 7 6 0 3 -5 -6 -11
-10 -5 -18 -15 -18 -21 0 -6 11 -3 25 6 23 15 25 15 35 -4 6 -11 15 -18 20
-15 5 3 12 0 16 -6 4 -7 3 -9 -4 -5 -6 3 -14 2 -17 -4 -8 -13 14 -42 25 -35 5
3 15 -2 23 -10 12 -11 17 -12 20 -2 3 7 6 4 6 -6 1 -10 6 -15 11 -12 6 4 8 12
4 18 -3 7 4 1 15 -12 25 -28 19 -43 -16 -37 -29 6 -43 16 -22 16 12 0 12 2 -1
10 -8 5 -19 5 -25 1 -14 -10 -46 -8 -70 6 -19 11 -19 12 -1 32 11 12 16 24 13
28 -4 3 -7 1 -7 -5 0 -7 -3 -11 -7 -11 -5 1 -15 1 -23 0 -11 -1 -12 -3 -3 -9
8 -5 9 -13 3 -22 -8 -12 -10 -12 -10 4 0 15 -3 16 -14 7 -11 -10 -16 -9 -24 4
-5 9 -12 16 -15 16 -23 -3 -28 1 -22 17 5 13 4 14 -6 5 -10 -10 -17 -9 -32 5
-10 9 -22 16 -26 16 -3 -1 -5 2 -3 7 2 8 -11 13 -29 11 -4 -1 -15 9 -25 21
-11 12 -12 17 -4 11 19 -14 48 -10 69 10 17 18 25 21 16 6z m335 -174 c0 -3
-4 -8 -10 -11 -5 -3 -10 -1 -10 4 0 6 5 11 10 11 6 0 10 -2 10 -4z"/>
<path d="M2446 1441 c-4 -5 -2 -12 3 -15 5 -4 12 -2 15 3 4 5 2 12 -3 15 -5 4
-12 2 -15 -3z"/>
<path d="M2325 1372 c-5 -4 -11 -14 -13 -22 -2 -12 1 -11 11 2 8 10 18 14 22
10 5 -4 5 -1 1 6 -8 14 -8 14 -21 4z"/>
<path d="M2259 1328 c-7 -24 -4 -39 9 -50 10 -7 14 -9 10 -4 -4 4 3 18 16 30
12 11 14 15 5 8 -18 -15 -44 -8 -34 9 4 5 4 9 1 9 -3 0 -6 -1 -7 -2z"/>
<path d="M2225 1226 c-16 -24 -29 -27 -53 -12 -18 11 -45 -13 -32 -29 5 -6 6
-16 2 -20 -4 -5 -1 -5 6 -1 7 4 10 16 7 27 -4 11 -2 19 5 19 6 0 9 -4 6 -9 -3
-4 1 -16 8 -26 13 -18 14 -18 25 4 10 18 15 20 27 11 7 -7 11 -17 7 -23 -3 -6
-1 -7 6 -3 8 5 9 12 2 20 -11 13 -10 34 2 54 15 23 -2 12 -18 -12z m-32 -43
c-3 -7 -6 -13 -8 -13 -2 0 -5 6 -8 13 -3 8 1 14 8 14 7 0 11 -6 8 -14z"/>
<path d="M2167 735 c-16 -11 -16 -13 -2 -19 10 -3 13 -11 9 -18 -4 -7 -3 -10
1 -5 5 4 16 0 26 -9 11 -10 19 -12 24 -5 10 17 26 13 23 -6 -2 -10 3 -18 10
-19 6 -1 17 -2 23 -3 5 0 7 -6 4 -11 -4 -6 10 1 30 15 21 13 42 22 47 19 5 -3
4 3 -3 14 -12 18 -14 19 -36 5 -21 -14 -23 -14 -29 2 -5 13 -9 14 -15 3 -13
-20 -11 -31 7 -24 9 3 12 2 9 -5 -11 -17 -30 -4 -30 22 0 15 -5 23 -14 21 -7
-2 -21 3 -30 11 -28 24 -36 26 -54 12z m58 -34 c0 -6 -4 -10 -10 -8 -5 1 -9 8
-8 15 0 8 -5 11 -13 8 -15 -6 -27 7 -17 18 9 8 48 -18 48 -33z m104 -24 c-2
-1 -13 -9 -24 -17 -19 -14 -19 -14 -6 3 7 9 18 17 24 17 6 0 8 -1 6 -3z"/>
<path d="M2351 637 c-8 -11 -8 -17 1 -24 15 -11 58 -11 58 0 0 4 -2 6 -4 5 -2
-2 -13 5 -24 15 -16 15 -21 15 -31 4z m28 -11 c11 -14 6 -15 -27 -7 -4 1 8 21
12 21 2 0 9 -6 15 -14z"/>
<path d="M2462 597 c-8 -10 -6 -13 11 -14 12 0 16 1 9 4 -6 3 -10 9 -6 14 8
14 -2 11 -14 -4z"/>
<path d="M2112 1107 c-12 -13 -19 -27 -15 -32 5 -4 3 -5 -4 -1 -7 4 -9 14 -6
24 5 14 3 15 -7 5 -11 -10 -11 -15 0 -28 7 -8 15 -13 18 -11 2 3 13 1 23 -5
15 -7 19 -7 17 3 -2 8 4 12 15 10 22 -4 22 10 -1 38 l-17 21 -23 -24z m39 -9
c6 -13 8 -20 4 -16 -5 4 -14 3 -22 -4 -19 -15 -27 -4 -13 21 14 26 17 26 31
-1z"/>
<path d="M2126 1093 c-6 -14 -5 -15 5 -6 7 7 10 15 7 18 -3 3 -9 -2 -12 -12z"/>
<path d="M1955 1100 c-3 -5 -1 -10 4 -10 6 0 11 5 11 10 0 6 -2 10 -4 10 -3 0
-8 -4 -11 -10z"/>
<path d="M1999 1069 c-12 -7 -12 -9 1 -9 12 0 12 -2 2 -9 -11 -7 -10 -9 3 -15
9 -3 13 -10 10 -16 -8 -13 8 -13 21 0 7 7 11 6 11 -4 0 -8 -4 -13 -9 -10 -15
9 -8 -8 7 -20 14 -10 13 -14 -2 -36 -26 -37 -25 -50 10 -94 18 -22 32 -45 32
-51 0 -5 5 -10 11 -10 7 0 21 -11 33 -25 11 -14 20 -19 21 -13 0 7 3 12 8 10
4 -1 8 2 9 7 3 19 28 25 40 10 10 -14 12 -14 10 6 -1 12 -9 26 -18 31 -12 6
-16 19 -14 44 1 20 -4 40 -12 46 -7 7 -10 16 -5 23 13 17 9 39 -8 43 -12 4
-12 3 -1 -5 12 -9 1 -9 -82 -3 -5 1 -6 5 -3 10 3 5 -1 14 -9 21 -8 7 -12 17
-8 24 9 14 14 40 6 32 -4 -3 -16 0 -28 8 -14 9 -27 11 -36 5z m61 -33 c0 -2
-10 -2 -22 -1 -12 1 -22 9 -24 18 -2 15 0 15 22 0 13 -8 24 -16 24 -17z m97
-88 c9 -1 9 -5 3 -13 -6 -7 -5 -16 2 -23 18 -18 18 -40 -1 -38 -19 1 -22 -26
-3 -30 7 -1 8 0 2 3 -5 2 -10 9 -10 15 0 6 6 6 15 -2 8 -7 13 -16 10 -20 -3
-5 0 -12 5 -15 8 -5 6 -13 -4 -24 -9 -10 -13 -22 -9 -26 5 -5 0 -3 -9 4 -15
11 -18 11 -18 0 0 -7 -7 -3 -16 9 -8 12 -21 19 -27 16 -7 -4 -9 -3 -4 1 4 5
-3 19 -15 32 -12 13 -18 23 -14 23 5 0 -2 9 -15 21 -13 11 -18 18 -11 14 15
-8 16 11 1 20 -7 5 -5 13 5 24 15 17 39 19 113 9z"/>
<path d="M2051 936 c-9 -10 -9 -16 -1 -21 6 -4 9 -13 6 -20 -3 -9 2 -11 17 -8
13 3 18 1 12 -4 -17 -13 -12 -29 19 -59 31 -31 44 -36 64 -20 10 7 7 15 -15
33 l-28 23 22 19 c20 16 21 21 8 31 -8 7 -12 17 -8 23 3 6 1 7 -5 3 -7 -4 -12
-1 -12 6 0 9 -3 9 -10 -2 -9 -13 -10 -13 -10 0 0 13 -1 13 -10 0 -5 -9 -5 -19
2 -28 13 -15 20 -84 7 -77 -4 3 -5 13 -2 23 6 15 5 16 -13 3 -18 -14 -18 -14
-1 4 16 18 16 20 -5 33 -19 11 -20 12 -3 7 15 -5 17 -3 8 6 -6 6 -9 19 -7 28
3 9 -1 5 -9 -8 -8 -14 -17 -19 -21 -13 -3 6 0 12 6 15 7 2 10 7 7 11 -3 4 -12
0 -18 -8z m91 -24 c9 -9 8 -16 -5 -27 -9 -8 -15 -12 -12 -8 3 3 -2 16 -10 29
-12 19 -12 22 0 20 9 -1 21 -8 27 -14z m23 -94 c5 4 5 2 2 -5 -12 -20 -42 -8
-43 17 l-1 24 17 -22 c10 -11 21 -18 25 -14z"/>
<path d="M2126 907 c3 -10 9 -15 12 -12 3 3 0 11 -7 18 -10 9 -11 8 -5 -6z"/>
<path d="M2120 1023 c0 -6 4 -14 10 -18 5 -3 6 -13 3 -21 -5 -14 -3 -14 15 -3
20 12 20 14 4 23 -9 5 -20 14 -24 20 -5 8 -8 7 -8 -1z"/>
<path d="M2001 986 c-9 -11 -9 -16 1 -22 7 -4 10 -4 6 1 -4 4 -3 14 3 22 6 7
9 13 6 13 -2 0 -10 -6 -16 -14z"/>
</g>
</svg>
